<svg xmlns="http://www.w3.org/2000/svg" xmlns:xlink="http://www.w3.org/1999/xlink" width="90" zoomAndPan="magnify" viewBox="0 0 67.5 54.749999" height="73" preserveAspectRatio="xMidYMid meet" version="1.0"><defs><clipPath id="d0f4fc5a0f"><path d="M 0 0.078125 L 67.003906 0.078125 L 67.003906 54.425781 L 0 54.425781 Z M 0 0.078125 " clip-rule="nonzero"/></clipPath><clipPath id="0d8cfe71e6"><path d="M 4.074219 1.59375 L 62.890625 1.59375 L 62.890625 52.960938 L 4.074219 52.960938 Z M 4.074219 1.59375 " clip-rule="nonzero"/></clipPath></defs><g clip-path="url(#d0f4fc5a0f)"><path fill="#ffffff" d="M 0 0.078125 L 67.003906 0.078125 L 67.003906 54.425781 L 0 54.425781 Z M 0 0.078125 " fill-opacity="1" fill-rule="nonzero"/><path fill="#ffffff" d="M 0 0.078125 L 67.003906 0.078125 L 67.003906 54.425781 L 0 54.425781 Z M 0 0.078125 " fill-opacity="1" fill-rule="nonzero"/></g><g clip-path="url(#0d8cfe71e6)"><path fill="#000000" d="M 62.886719 15.929688 C 62.890625 14.941406 62.40625 13.976562 61.53125 13.402344 L 50.367188 6.109375 C 49.867188 5.765625 49.316406 5.527344 48.726562 5.394531 L 43.644531 4.246094 C 43.429688 3.941406 43.160156 3.671875 42.84375 3.457031 L 40.351562 1.777344 C 40.171875 1.65625 39.960938 1.597656 39.765625 1.597656 C 39.71875 1.597656 36.628906 1.597656 33.523438 1.597656 C 33.5 1.597656 33.472656 1.597656 33.445312 1.597656 C 30.34375 1.597656 27.25 1.597656 27.203125 1.597656 C 27.011719 1.597656 26.800781 1.65625 26.621094 1.777344 L 24.128906 3.457031 C 23.8125 3.667969 23.542969 3.9375 23.328125 4.246094 L 18.246094 5.394531 C 17.65625 5.527344 17.105469 5.765625 16.605469 6.105469 L 5.4375 13.402344 C 4.5625 13.976562 4.078125 14.941406 4.082031 15.929688 C 4.078125 16.386719 4.175781 16.847656 4.390625 17.28125 L 5.679688 19.902344 L 7.835938 24.347656 C 8.261719 25.226562 9.050781 25.792969 9.925781 25.972656 C 10.6875 26.136719 11.511719 26.011719 12.207031 25.550781 C 12.230469 25.535156 14.480469 24.070312 16.082031 23.074219 L 16.082031 49.601562 C 16.082031 51.449219 17.582031 52.953125 19.425781 52.953125 L 47.546875 52.953125 C 49.390625 52.953125 50.890625 51.449219 50.890625 49.601562 L 50.890625 23.074219 C 52.488281 24.074219 54.742188 25.535156 54.765625 25.550781 C 55.460938 26.011719 56.285156 26.140625 57.046875 25.972656 C 57.921875 25.792969 58.710938 25.226562 59.136719 24.347656 L 61.289062 19.90625 L 62.582031 17.28125 C 62.792969 16.847656 62.890625 16.386719 62.886719 15.929688 Z M 60.71875 16.316406 L 59.429688 18.976562 L 57.226562 23.449219 C 57.097656 23.714844 56.855469 23.886719 56.585938 23.941406 C 56.371094 23.976562 56.140625 23.933594 55.929688 23.792969 C 55.90625 23.777344 53.398438 22.15625 51.769531 21.152344 C 51.199219 20.800781 50.558594 20.785156 50.019531 21.007812 C 49.324219 21.289062 48.792969 21.957031 48.792969 22.8125 L 48.792969 27.601562 C 48.792969 27.660156 48.800781 27.71875 48.8125 27.777344 L 48.8125 32.304688 C 48.800781 32.363281 48.792969 32.421875 48.792969 32.484375 L 48.792969 49.601562 C 48.792969 50.300781 48.226562 50.871094 47.53125 50.871094 L 19.441406 50.871094 C 18.742188 50.871094 18.175781 50.300781 18.175781 49.601562 L 18.175781 32.480469 C 18.175781 32.421875 18.167969 32.363281 18.160156 32.304688 L 18.160156 27.777344 C 18.167969 27.71875 18.175781 27.660156 18.175781 27.601562 L 18.175781 22.8125 C 18.175781 21.957031 17.644531 21.289062 16.953125 21.007812 C 16.414062 20.785156 15.769531 20.800781 15.199219 21.152344 C 13.574219 22.152344 11.066406 23.777344 11.039062 23.792969 C 10.832031 23.933594 10.597656 23.972656 10.382812 23.941406 C 10.117188 23.886719 9.875 23.714844 9.742188 23.449219 L 7.542969 18.976562 L 6.25 16.3125 C 6.191406 16.195312 6.164062 16.066406 6.160156 15.941406 C 6.164062 15.644531 6.3125 15.359375 6.574219 15.1875 L 17.796875 7.847656 C 17.800781 7.84375 17.808594 7.839844 17.816406 7.832031 C 18.097656 7.636719 18.414062 7.5 18.75 7.425781 L 22.75 6.523438 L 22.695312 7.984375 C 22.640625 9.484375 23.425781 10.859375 24.742188 11.574219 L 24.816406 11.613281 C 24.871094 11.648438 24.925781 11.683594 24.984375 11.714844 L 31.367188 15.167969 C 31.824219 15.773438 32.65625 16.074219 33.484375 16.074219 C 34.316406 16.074219 35.148438 15.773438 35.601562 15.167969 L 41.984375 11.714844 C 42.042969 11.683594 42.097656 11.648438 42.152344 11.613281 L 42.230469 11.574219 C 43.546875 10.859375 44.328125 9.484375 44.273438 7.984375 L 44.21875 6.523438 L 48.222656 7.425781 C 48.558594 7.5 48.871094 7.640625 49.15625 7.832031 C 49.164062 7.839844 49.167969 7.84375 49.175781 7.847656 L 60.394531 15.1875 C 60.65625 15.359375 60.804688 15.644531 60.808594 15.941406 C 60.804688 16.066406 60.777344 16.195312 60.71875 16.316406 Z M 30.011719 12.058594 L 25.832031 9.796875 C 25.226562 9.394531 24.914062 8.671875 25.042969 7.945312 C 25.285156 6.613281 25.480469 5.484375 25.523438 5.308594 C 25.589844 5.085938 25.730469 4.886719 25.925781 4.757812 L 26.734375 4.214844 L 29.1875 10.082031 Z M 40.238281 4.214844 L 41.042969 4.757812 C 41.238281 4.886719 41.382812 5.082031 41.445312 5.308594 C 41.492188 5.484375 41.683594 6.613281 41.925781 7.945312 C 42.058594 8.671875 41.742188 9.394531 41.136719 9.796875 L 36.957031 12.058594 L 37.78125 10.078125 Z M 38.195312 3.679688 L 35.867188 9.273438 L 33.925781 13.90625 C 33.828125 13.960938 33.65625 13.988281 33.484375 13.988281 C 33.3125 13.988281 33.140625 13.960938 33.042969 13.90625 L 31.105469 9.277344 L 28.777344 3.679688 Z M 38.195312 3.679688 " fill-opacity="1" fill-rule="nonzero"/></g></svg>