<svg xmlns="http://www.w3.org/2000/svg" xmlns:xlink="http://www.w3.org/1999/xlink" width="90" zoomAndPan="magnify" viewBox="0 0 67.5 54.749999" height="73" preserveAspectRatio="xMidYMid meet" version="1.0"><defs><clipPath id="3e01807a76"><path d="M 0 0.078125 L 67.003906 0.078125 L 67.003906 54.425781 L 0 54.425781 Z M 0 0.078125 " clip-rule="nonzero"/></clipPath><clipPath id="aaca0ca707"><path d="M 8.820312 1.472656 L 57.957031 1.472656 L 57.957031 52.84375 L 8.820312 52.84375 Z M 8.820312 1.472656 " clip-rule="nonzero"/></clipPath></defs><g clip-path="url(#3e01807a76)"><path fill="#ffffff" d="M 0 0.078125 L 67.003906 0.078125 L 67.003906 54.425781 L 0 54.425781 Z M 0 0.078125 " fill-opacity="1" fill-rule="nonzero"/><path fill="#ffffff" d="M 0 0.078125 L 67.003906 0.078125 L 67.003906 54.425781 L 0 54.425781 Z M 0 0.078125 " fill-opacity="1" fill-rule="nonzero"/></g><g clip-path="url(#aaca0ca707)"><path fill="#000000" d="M 25.953125 1.472656 C 25.792969 1.472656 25.636719 1.527344 25.507812 1.621094 L 22.730469 3.707031 L 12.566406 3.707031 C 10.515625 3.707031 8.847656 5.378906 8.847656 7.429688 L 8.847656 49.121094 C 8.847656 51.175781 10.515625 52.84375 12.566406 52.84375 L 54.210938 52.84375 C 56.261719 52.84375 57.929688 51.175781 57.929688 49.121094 L 57.929688 7.429688 C 57.929688 5.378906 56.261719 3.707031 54.210938 3.707031 L 44.046875 3.707031 L 41.273438 1.621094 C 41.144531 1.527344 40.984375 1.472656 40.824219 1.472656 Z M 27.222656 2.964844 L 39.554688 2.964844 L 33.390625 9.136719 Z M 26.183594 2.976562 L 32.847656 9.648438 L 26.453125 15.375 L 23.546875 4.953125 Z M 40.59375 2.976562 L 43.222656 4.949219 L 39.445312 15.203125 L 33.914062 9.664062 Z M 12.566406 5.195312 L 19.929688 5.195312 L 14.570312 9.371094 C 14.492188 9.433594 14.4375 9.523438 14.429688 9.621094 C 14.417969 9.722656 14.445312 9.820312 14.507812 9.898438 L 20.988281 17.828125 L 15.277344 23.546875 C 15.136719 23.6875 15.132812 23.917969 15.273438 24.066406 L 30.414062 39.964844 L 30.414062 44.28125 C 30.414062 44.285156 30.414062 44.289062 30.414062 44.289062 C 30.414062 44.320312 30.425781 44.347656 30.433594 44.375 C 30.4375 44.394531 30.4375 44.414062 30.445312 44.429688 C 30.453125 44.445312 30.464844 44.460938 30.476562 44.476562 C 30.492188 44.503906 30.507812 44.527344 30.527344 44.550781 C 30.53125 44.550781 30.53125 44.554688 30.535156 44.554688 C 30.550781 44.570312 30.570312 44.578125 30.589844 44.589844 C 30.609375 44.601562 30.625 44.617188 30.648438 44.628906 C 30.691406 44.644531 30.738281 44.65625 30.785156 44.65625 C 30.835938 44.65625 30.886719 44.644531 30.929688 44.625 C 30.9375 44.625 30.941406 44.617188 30.945312 44.617188 C 30.984375 44.597656 31.023438 44.574219 31.054688 44.539062 C 31.054688 44.539062 31.054688 44.535156 31.058594 44.535156 L 50.019531 24.0625 C 50.152344 23.921875 50.152344 23.707031 50.027344 23.566406 L 45.03125 17.84375 L 51.523438 9.898438 C 51.589844 9.820312 51.621094 9.714844 51.605469 9.613281 C 51.589844 9.511719 51.53125 9.417969 51.449219 9.359375 L 45.511719 5.195312 L 54.210938 5.195312 C 55.441406 5.195312 56.441406 6.199219 56.441406 7.429688 L 56.441406 49.121094 C 56.441406 50.351562 55.441406 51.355469 54.210938 51.355469 L 12.566406 51.355469 C 11.335938 51.355469 10.335938 50.351562 10.335938 49.121094 L 10.335938 7.429688 C 10.335938 6.199219 11.335938 5.195312 12.566406 5.195312 Z M 21.140625 5.195312 L 22.84375 5.195312 L 31.585938 36.5625 L 30.640625 39.125 L 16.0625 23.816406 L 21.753906 18.117188 C 21.886719 17.980469 21.898438 17.765625 21.777344 17.617188 L 15.324219 9.722656 Z M 43.921875 5.195312 L 44.214844 5.195312 L 50.695312 9.738281 L 44.257812 17.617188 C 44.140625 17.757812 44.144531 17.960938 44.261719 18.097656 L 49.25 23.800781 L 31.15625 43.332031 L 31.15625 39.882812 L 32.269531 36.863281 C 32.324219 36.796875 32.359375 36.714844 32.359375 36.621094 Z M 33.375 10.175781 L 36.976562 13.785156 C 36.929688 13.800781 36.882812 13.828125 36.84375 13.867188 L 34.722656 15.992188 L 32.027344 15.992188 L 29.226562 13.890625 Z M 37.453125 14.261719 L 39.074219 15.882812 C 39.105469 15.910156 39.140625 15.929688 39.175781 15.949219 L 37.507812 20.472656 L 35.335938 16.429688 L 37.371094 14.394531 C 37.410156 14.355469 37.4375 14.308594 37.453125 14.261719 Z M 28.667969 14.390625 C 28.683594 14.402344 28.6875 14.417969 28.703125 14.429688 L 31.363281 16.425781 L 27.890625 20.53125 L 26.675781 16.175781 Z M 32.074219 16.734375 L 34.652344 16.734375 L 37.152344 21.378906 C 37.15625 21.386719 37.164062 21.390625 37.167969 21.398438 L 32.027344 35.367188 L 28.132812 21.398438 Z M 35.992188 45.398438 C 34.96875 45.398438 34.132812 46.234375 34.132812 47.261719 C 34.132812 48.285156 34.96875 49.121094 35.992188 49.121094 C 37.015625 49.121094 37.851562 48.285156 37.851562 47.261719 C 37.851562 46.234375 37.015625 45.398438 35.992188 45.398438 Z M 30.785156 46.144531 C 30.582031 46.144531 30.414062 46.308594 30.414062 46.515625 L 30.414062 48.75 C 30.414062 48.953125 30.582031 49.121094 30.785156 49.121094 C 30.992188 49.121094 31.15625 48.953125 31.15625 48.75 L 31.15625 46.515625 C 31.15625 46.308594 30.992188 46.144531 30.785156 46.144531 Z M 35.992188 46.144531 C 36.605469 46.144531 37.105469 46.644531 37.105469 47.261719 C 37.105469 47.875 36.605469 48.378906 35.992188 48.378906 C 35.375 48.378906 34.875 47.875 34.875 47.261719 C 34.875 46.644531 35.375 46.144531 35.992188 46.144531 Z M 35.992188 46.144531 " fill-opacity="1" fill-rule="nonzero"/></g></svg>